<svg style="display: none;" aria-hidden="true" xmlns="http://www.w3.org/2000/svg" xmlns:xlink="http://www.w3.org/1999/xlink"><symbol viewBox="0 0 14 24" id="svg-button-arrow"><path d="M4.8752 21.0999L13.3002 12.6999C13.4002 12.5999 13.4709 12.4916 13.5122 12.3749C13.5542 12.2582 13.5752 12.1332 13.5752 11.9999C13.5752 11.8666 13.5542 11.7416 13.5122 11.6249C13.4709 11.5082 13.4002 11.3999 13.3002 11.2999L4.8752 2.8749C4.64186 2.64157 4.3502 2.5249 4.0002 2.5249C3.6502 2.5249 3.3502 2.6499 3.1002 2.8999C2.8502 3.1499 2.7252 3.44157 2.7252 3.7749C2.7252 4.10824 2.8502 4.3999 3.1002 4.6499L10.4502 11.9999L3.1002 19.3499C2.86686 19.5832 2.7502 19.8706 2.7502 20.2119C2.7502 20.5539 2.8752 20.8499 3.1252 21.0999C3.3752 21.3499 3.66686 21.4749 4.0002 21.4749C4.33353 21.4749 4.6252 21.3499 4.8752 21.0999Z"/></symbol><symbol viewBox="0 0 32 32" id="svg-calendar"><path fill-rule="evenodd" clip-rule="evenodd" d="M4.5835 14.667C4.5835 14.2528 4.91928 13.917 5.3335 13.917H26.6668C27.081 13.917 27.4168 14.2528 27.4168 14.667C27.4168 15.0812 27.081 15.417 26.6668 15.417H5.3335C4.91928 15.417 4.5835 15.0812 4.5835 14.667Z"/><path fill-rule="evenodd" clip-rule="evenodd" d="M4.5835 9.33366C4.5835 7.44669 6.11319 5.91699 8.00016 5.91699H24.0002C25.8872 5.91699 27.4168 7.44669 27.4168 9.33366V25.3337C27.4168 27.2207 25.8872 28.7503 24.0002 28.7503H8.00016C6.1132 28.7503 4.5835 27.2207 4.5835 25.3337V9.33366ZM8.00016 7.41699C6.94162 7.41699 6.0835 8.27511 6.0835 9.33366V25.3337C6.0835 26.3922 6.94161 27.2503 8.00016 27.2503H24.0002C25.0588 27.2503 25.9168 26.3922 25.9168 25.3337V9.33366C25.9168 8.27511 25.0587 7.41699 24.0002 7.41699H8.00016Z"/><path fill-rule="evenodd" clip-rule="evenodd" d="M20 3.25C20.4142 3.25 20.75 3.58579 20.75 4V9.33333C20.75 9.74755 20.4142 10.0833 20 10.0833 19.5858 10.0833 19.25 9.74755 19.25 9.33333V4C19.25 3.58579 19.5858 3.25 20 3.25zM12 3.25C12.4142 3.25 12.75 3.58579 12.75 4V9.33333C12.75 9.74755 12.4142 10.0833 12 10.0833 11.5858 10.0833 11.25 9.74755 11.25 9.33333V4C11.25 3.58579 11.5858 3.25 12 3.25z"/></symbol><symbol viewBox="0 0 24 24" fill="none" id="svg-cart"><path d="M17 17H6.5L4.5 3H2"/><path d="M4.78564 5H20.9999L17.9999 14H6.07135M9 21C10.1046 21 11 20.1046 11 19 11 17.8954 10.1046 17 9 17 7.89543 17 7 17.8954 7 19 7 20.1046 7.89543 21 9 21zM17 21C18.1046 21 19 20.1046 19 19 19 17.8954 18.1046 17 17 17 15.8954 17 15 17.8954 15 19 15 20.1046 15.8954 21 17 21z"/></symbol><symbol viewBox="0 0 25 25" id="svg-close"><path fill-rule="evenodd" clip-rule="evenodd" d="M22.7777 24.1924L0.15024 1.56497L1.56445 0.150757L24.1919 22.7782L22.7777 24.1924Z"/><path fill-rule="evenodd" clip-rule="evenodd" d="M-0.000616312 22.6274L22.6268 -2.90871e-05L24.041 1.41418L1.4136 24.0416L-0.000616312 22.6274Z"/></symbol><symbol viewBox="0 0 32 32" fill="none" id="svg-filter"><path d="M5.33301 5.33337L11.9997 16V24L19.9997 28V16L26.6663 5.33337H5.33301Z" stroke="#777" stroke-width="1.5" stroke-linecap="round" stroke-linejoin="round"/></symbol><symbol viewBox="0 0 24 24" fill="none" id="svg-heart"><path d="M4.3314 12.0474L12 20L19.6686 12.0474C20.5211 11.1633 21 9.96429 21 8.71405C21 6.11055 18.9648 4 16.4543 4C15.2487 4 14.0925 4.49666 13.24 5.38071L12 6.66667L10.76 5.38071C9.90749 4.49666 8.75128 4 7.54569 4C5.03517 4 3 6.11055 3 8.71405C3 9.96429 3.47892 11.1633 4.3314 12.0474Z"/></symbol><symbol viewBox="0 0 36 36" id="svg-hide-pass"><path fill-rule="evenodd" clip-rule="evenodd" d="M16.9984 6C16.4461 6 15.9984 6.44772 15.9984 7V10.335C14.2289 10.5361 12.634 11.0812 11.2194 11.8159L9.35059 8.57892C9.07444 8.10062 8.46285 7.93675 7.98456 8.21289C7.50627 8.48903 7.34239 9.10062 7.61854 9.57892L9.50631 12.8486C8.90776 13.2613 8.35047 13.7018 7.83504 14.1537C7.17482 14.7325 6.57866 15.3337 6.04724 15.9254C6.03263 15.9116 6.01752 15.8981 6.00191 15.885L2.93773 13.3138C2.51466 12.9588 1.8839 13.014 1.5289 13.4371C1.1739 13.8602 1.22908 14.4909 1.65216 14.8459L4.71634 17.4171C4.73664 17.4341 4.75743 17.4502 4.77863 17.4653C4.08165 18.3871 3.56866 19.2018 3.24275 19.7582C2.77278 20.5607 2.83123 21.5565 3.4067 22.2969C4.90207 24.2209 9.70206 29.4994 17.4994 29.4994C25.303 29.4994 30.0809 24.2127 31.5647 22.2907C32.1346 21.5525 32.1918 20.5636 31.7272 19.765C31.3481 19.1132 30.7124 18.1051 29.8242 16.9849C29.9042 16.9483 29.9807 16.9005 30.0513 16.8412L33.2289 14.1749C33.652 13.8199 33.7071 13.1891 33.3521 12.766C32.9971 12.343 32.3664 12.2878 31.9433 12.6428L28.7657 15.3091C28.6879 15.3744 28.6225 15.4491 28.5698 15.5301C28.1372 15.0694 27.6659 14.6072 27.156 14.1585C26.3849 13.48 25.5194 12.8269 24.5614 12.2553L26.4404 9.00079C26.7166 8.5225 26.5527 7.91091 26.0744 7.63477C25.5961 7.35862 24.9845 7.5225 24.7084 8.00079L22.7782 11.344C21.348 10.7315 19.7532 10.3249 17.9984 10.2596V7C17.9984 6.44772 17.5507 6 16.9984 6ZM9.15348 15.6576C7.0183 17.5294 5.60461 19.6829 4.96855 20.769C4.90799 20.8724 4.91711 20.9812 4.98584 21.0696C6.36646 22.846 10.6499 27.4994 17.4994 27.4994C24.3522 27.4994 28.6131 22.8411 29.9816 21.0685C30.0491 20.981 30.0583 20.8736 29.9984 20.7706C29.368 19.6868 27.9629 17.5328 25.8347 15.6599C23.7105 13.7906 20.9246 12.2503 17.4994 12.2503C14.0759 12.2503 11.2849 13.789 9.15348 15.6576ZM17.4987 23.5003C19.7079 23.5003 21.4987 21.7094 21.4987 19.5003C21.4987 17.2912 19.7079 15.5003 17.4987 15.5003C15.2896 15.5003 13.4987 17.2912 13.4987 19.5003C13.4987 21.7094 15.2896 23.5003 17.4987 23.5003ZM17.4987 25.5003C20.8125 25.5003 23.4987 22.814 23.4987 19.5003C23.4987 16.1866 20.8125 13.5003 17.4987 13.5003C14.185 13.5003 11.4987 16.1866 11.4987 19.5003C11.4987 22.814 14.185 25.5003 17.4987 25.5003Z"/></symbol><symbol viewBox="0 0 33 32" id="svg-mail"><path fill-rule="evenodd" clip-rule="evenodd" d="M5.8602 6.52717C6.23639 6.151 6.75824 5.91699 7.33333 5.91699H28.6667C29.2417 5.91699 29.7636 6.15102 30.1397 6.52712L30.1398 6.52714C30.5161 6.90339 30.75 7.42528 30.75 8.00033V24.0003C30.75 25.1509 29.8173 26.0837 28.6667 26.0837H7.33333C6.18276 26.0837 5.25 25.1509 5.25 24.0003V8.00033C5.25 7.42523 5.48401 6.90338 5.86018 6.5272L5.8602 6.52717ZM6.92084 7.58786C6.92085 7.58785 6.92086 7.58784 6.92086 7.58783C7.02726 7.48145 7.17207 7.41699 7.33333 7.41699H28.6667C28.8279 7.41699 28.9727 7.48144 29.0792 7.5879C29.1855 7.69424 29.25 7.839 29.25 8.00033V24.0003C29.25 24.3225 28.9889 24.5837 28.6667 24.5837H7.33333C7.01116 24.5837 6.75 24.3225 6.75 24.0003V8.00033C6.75 7.83906 6.81446 7.69426 6.92084 7.58786Z"/><path fill-rule="evenodd" clip-rule="evenodd" d="M5.86029 6.52729C6.15318 6.23439 6.62806 6.23439 6.92095 6.52728L16.6448 16.2511C17.3933 16.9996 18.6069 16.9997 19.3553 16.2511L29.0792 6.52729C29.3721 6.23439 29.847 6.23439 30.1399 6.52729C30.4328 6.82018 30.4328 7.29506 30.1399 7.58795L20.4161 17.3117C20.4161 17.3117 20.4161 17.3117 20.4161 17.3117C19.0818 18.6461 16.9184 18.6461 15.5842 17.3117C15.5842 17.3117 15.5842 17.3118 15.5842 17.3117L5.8603 7.58795C5.5674 7.29506 5.5674 6.82018 5.86029 6.52729Z"/></symbol><symbol viewBox="0 0 20 12" id="svg-menu-arrow"><path d="M0.901562 2.37495L9.30156 10.8C9.40156 10.9 9.5099 10.9706 9.62656 11.012C9.74323 11.054 9.86823 11.075 10.0016 11.075C10.1349 11.075 10.2599 11.054 10.3766 11.012C10.4932 10.9706 10.6016 10.9 10.7016 10.8L19.1266 2.37495C19.3599 2.14162 19.4766 1.84995 19.4766 1.49995C19.4766 1.14995 19.3516 0.849952 19.1016 0.599952C18.8516 0.349952 18.5599 0.224952 18.2266 0.224952C17.8932 0.224952 17.6016 0.349952 17.3516 0.599952L10.0016 7.94995L2.65156 0.599952C2.41823 0.366618 2.1309 0.249951 1.78956 0.249951C1.44756 0.249951 1.15156 0.374951 0.901562 0.624951C0.651562 0.874951 0.526562 1.16662 0.526562 1.49995C0.526562 1.83328 0.651562 2.12495 0.901562 2.37495Z"/></symbol><symbol viewBox="0 0 33 32" id="svg-navigation"><g clip-path="url(#jclip0_1926_501)"><path fill-rule="evenodd" clip-rule="evenodd" d="M25.0291 4.86883C25.2923 5.02079 25.4377 5.31656 25.3974 5.6178L22.147 29.9144C22.1066 30.2164 21.8875 30.464 21.5926 30.5407C21.2977 30.6175 20.9857 30.5082 20.8031 30.2642L14.9128 22.3908L5.14902 21.2263C4.84643 21.1902 4.59577 20.9746 4.5148 20.6809C4.43383 20.3871 4.53866 20.0735 4.78002 19.8875L24.1963 4.92429C24.437 4.73877 24.7659 4.71687 25.0291 4.86883ZM7.15058 19.9544L15.4096 20.9394C15.6134 20.9637 15.7983 21.0705 15.9213 21.2349L20.9038 27.8948L23.6692 7.22424L7.15058 19.9544Z"/></g><defs><clipPath id="jclip0_1926_501"><path fill="#fff" transform="translate(.667)" d="M0 0H32V32H0z"/></clipPath></defs></symbol><symbol viewBox="0 0 22 21" id="svg-ok"><rect width="22" height="21" rx="10.5"/><path d="M14.4311 11.9662C14.7197 11.6907 14.7609 11.2972 14.5136 10.9036C14.3074 10.5888 13.9364 10.4314 13.5241 10.5101C13.3592 10.5494 13.1942 10.6282 13.0293 10.7462C11.7512 11.5727 10.0196 11.5333 8.74155 10.7069C8.6591 10.6675 8.57664 10.6282 8.49418 10.5888C8.04067 10.392 7.58716 10.4707 7.33979 10.8643C7.05119 11.2578 7.09241 11.6907 7.46347 12.0449C7.54592 12.1236 7.62838 12.163 7.66961 12.2417L7.71084 12.281C8.28804 12.7139 8.98893 12.9894 9.89596 13.1075L9.35998 13.6191C8.90647 14.052 8.41173 14.5243 7.95821 14.9572C7.83453 15.0752 7.66961 15.272 7.66961 15.5475C7.66961 15.9017 7.87576 16.2559 8.24681 16.4133C8.3705 16.492 8.49418 16.492 8.61787 16.492C8.82401 16.492 9.07138 16.4133 9.2363 16.2165C9.85472 15.6262 10.3495 15.1539 10.8442 14.6817C10.8854 14.6423 10.8854 14.6423 10.8854 14.6423C10.8854 14.6423 10.9267 14.6423 10.9267 14.6817C11.2565 15.0359 11.6276 15.3507 11.9574 15.7049C12.1223 15.8623 12.2872 16.0197 12.4521 16.1771C12.6583 16.3739 12.8232 16.4526 13.0706 16.4526C13.4416 16.492 13.8539 16.2559 14.0188 15.9017C14.1837 15.5868 14.1013 15.1933 13.8127 14.9572C13.4004 14.5636 12.9881 14.1307 12.5346 13.7372L11.8337 13.0681C12.2048 13.0288 12.617 12.9501 12.9881 12.7927C13.6065 12.5959 14.06 12.3204 14.4311 11.9662Z" fill="#fff"/><path d="M10.8854 10.8643C12.6583 10.8643 14.1013 9.52623 14.1013 7.83398C14.1013 7.00754 13.7714 6.22045 13.153 5.63013C12.5346 5.03981 11.7512 4.72498 10.9267 4.72498C9.15384 4.72498 7.75207 6.10238 7.71084 7.75527C7.71084 8.58172 8.04067 9.32945 8.6591 9.91977C9.2363 10.5494 10.0196 10.8643 10.8854 10.8643ZM9.97841 6.92883C10.2258 6.6927 10.5556 6.57464 10.8854 6.57464C11.6276 6.57464 12.1635 7.1256 12.1635 7.79463C12.1635 8.50301 11.5863 9.01462 10.8854 9.01462C10.1433 9.01462 9.60736 8.46366 9.60736 7.79463C9.60736 7.47979 9.73104 7.16496 9.97841 6.92883Z" fill="#fff"/><path d="M14.4311 11.9662C14.7197 11.6907 14.7609 11.2972 14.5136 10.9036C14.3074 10.5888 13.9364 10.4314 13.5241 10.5101C13.3592 10.5494 13.1942 10.6282 13.0293 10.7462C11.7512 11.5727 10.0196 11.5333 8.74155 10.7069C8.6591 10.6675 8.57664 10.6282 8.49418 10.5888C8.04067 10.392 7.58716 10.4707 7.33979 10.8643C7.05119 11.2578 7.09241 11.6907 7.46347 12.0449C7.54592 12.1236 7.62838 12.163 7.66961 12.2417L7.71084 12.281C8.28804 12.7139 8.98893 12.9894 9.89596 13.1075L9.35998 13.6191C8.90647 14.052 8.41173 14.5243 7.95821 14.9572C7.83453 15.0752 7.66961 15.272 7.66961 15.5475C7.66961 15.9017 7.87576 16.2559 8.24681 16.4133C8.3705 16.492 8.49418 16.492 8.61787 16.492C8.82401 16.492 9.07138 16.4133 9.2363 16.2165C9.85472 15.6262 10.3495 15.1539 10.8442 14.6817C10.8854 14.6423 10.8854 14.6423 10.8854 14.6423C10.8854 14.6423 10.9267 14.6423 10.9267 14.6817C11.2565 15.0359 11.6276 15.3507 11.9574 15.7049C12.1223 15.8623 12.2872 16.0197 12.4521 16.1771C12.6583 16.3739 12.8232 16.4526 13.0706 16.4526C13.4416 16.492 13.8539 16.2559 14.0188 15.9017C14.1837 15.5868 14.1013 15.1933 13.8127 14.9572C13.4004 14.5636 12.9881 14.1307 12.5346 13.7372L11.8337 13.0681C12.2048 13.0288 12.617 12.9501 12.9881 12.7927C13.6065 12.5959 14.06 12.3204 14.4311 11.9662Z" fill="#fff"/></symbol><symbol viewBox="0 0 10 18" id="svg-pagging-arrow"><path d="M6.518 2.17495L0.500139 8.47495C0.428711 8.54995 0.378235 8.6312 0.348711 8.7187C0.318711 8.8062 0.303711 8.89995 0.303711 8.99995C0.303711 9.09995 0.318711 9.1937 0.348711 9.2812C0.378235 9.3687 0.428711 9.44995 0.500139 9.52495L6.518 15.8437C6.68466 16.0187 6.893 16.1062 7.143 16.1062C7.393 16.1062 7.60728 16.0125 7.78585 15.825C7.96442 15.6375 8.05371 15.4187 8.05371 15.1687C8.05371 14.9187 7.96442 14.7 7.78585 14.5125L2.53585 8.99995L7.78585 3.48745C7.95252 3.31245 8.03585 3.09695 8.03585 2.84095C8.03585 2.58445 7.94657 2.36245 7.768 2.17495C7.58942 1.98745 7.38109 1.8937 7.143 1.8937C6.9049 1.8937 6.69657 1.98745 6.518 2.17495Z"/></symbol><symbol viewBox="0 0 20 18" id="svg-pagging-double-arrow"><path d="M6.518 2.17495L.500139 8.47495C.428711 8.54995.378235 8.6312.348711 8.7187.318711 8.8062.303711 8.89995.303711 8.99995.303711 9.09995.318711 9.1937.348711 9.2812.378235 9.3687.428711 9.44995.500139 9.52495L6.518 15.8437C6.68466 16.0187 6.893 16.1062 7.143 16.1062 7.393 16.1062 7.60728 16.0125 7.78585 15.825 7.96442 15.6375 8.05371 15.4187 8.05371 15.1687 8.05371 14.9187 7.96442 14.7 7.78585 14.5125L2.53585 8.99995 7.78585 3.48745C7.95252 3.31245 8.03585 3.09695 8.03585 2.84095 8.03585 2.58445 7.94657 2.36245 7.768 2.17495 7.58942 1.98745 7.38109 1.8937 7.143 1.8937 6.9049 1.8937 6.69657 1.98745 6.518 2.17495zM16.518 2.17495L10.5001 8.47495C10.4287 8.54995 10.3782 8.6312 10.3487 8.7187 10.3187 8.8062 10.3037 8.89995 10.3037 8.99995 10.3037 9.09995 10.3187 9.1937 10.3487 9.2812 10.3782 9.3687 10.4287 9.44995 10.5001 9.52495L16.518 15.8437C16.6847 16.0187 16.893 16.1062 17.143 16.1062 17.393 16.1062 17.6073 16.0125 17.7859 15.825 17.9644 15.6375 18.0537 15.4187 18.0537 15.1687 18.0537 14.9187 17.9644 14.7 17.7859 14.5125L12.5359 8.99995 17.7859 3.48745C17.9525 3.31245 18.0359 3.09695 18.0359 2.84095 18.0359 2.58445 17.9466 2.36245 17.768 2.17495 17.5894 1.98745 17.3811 1.8937 17.143 1.8937 16.9049 1.8937 16.6966 1.98745 16.518 2.17495z"/></symbol><symbol viewBox="0 0 33 32" id="svg-phone"><path fill-rule="evenodd" clip-rule="evenodd" d="M5.25 6.66667C5.25 4.77969 6.77969 3.25 8.66667 3.25H19.3333C21.2204 3.25 22.75 4.7797 22.75 6.66667V25.3333C22.75 27.2203 21.2203 28.75 19.3333 28.75H8.66667C6.7797 28.75 5.25 27.2204 5.25 25.3333V6.66667ZM8.66667 4.75C7.60812 4.75 6.75 5.60812 6.75 6.66667V25.3333C6.75 26.3919 7.60811 27.25 8.66667 27.25H19.3333C20.3919 27.25 21.25 26.3919 21.25 25.3333V6.66667C21.25 5.60811 20.3919 4.75 19.3333 4.75H8.66667Z"/><path fill-rule="evenodd" clip-rule="evenodd" d="M14 23.25C14.4142 23.25 14.75 23.5858 14.75 24V24.0133C14.75 24.4275 14.4142 24.7633 14 24.7633C13.5858 24.7633 13.25 24.4275 13.25 24.0133V24C13.25 23.5858 13.5858 23.25 14 23.25Z"/></symbol><symbol viewBox="0 0 24 24" fill="none" id="svg-search"><path d="M16 10.5C16 14.6421 12.6421 18 8.5 18 4.35786 18 1 14.6421 1 10.5 1 6.35786 4.35786 3 8.5 3 12.6421 3 16 6.35786 16 10.5zM17.9999 20L13.8032 15.8033"/></symbol><symbol viewBox="0 0 23 23" id="svg-sort2x2"><rect x=".5" y=".5" width="10" height="10" rx="2.5"/><rect x=".5" y="12.5" width="10" height="10" rx="2.5"/><rect x="12.5" y=".5" width="10" height="10" rx="2.5"/><rect x="12.5" y="12.5" width="10" height="10" rx="2.5"/></symbol><symbol viewBox="0 0 23 23" id="svg-sort3x3"><rect x=".5" y=".5" width="6" height="6" rx="1.5"/><rect x="8.5" y=".5" width="6" height="6" rx="1.5"/><rect x="16.5" y=".5" width="6" height="6" rx="1.5"/><rect x=".5" y="8.5" width="6" height="6" rx="1.5"/><rect x="8.5" y="8.5" width="6" height="6" rx="1.5"/><rect x="16.5" y="8.5" width="6" height="6" rx="1.5"/><rect x=".5" y="16.5" width="6" height="6" rx="1.5"/><rect x="8.5" y="16.5" width="6" height="6" rx="1.5"/><rect x="16.5" y="16.5" width="6" height="6" rx="1.5"/></symbol><symbol viewBox="0 0 21 21" id="svg-tg"><rect width="21" height="21" rx="10.5"/><path d="M14.6996 6.61622L13.1218 14.8535C13.1218 14.8535 12.901 15.4246 12.2945 15.1507L8.65401 12.2602L8.63713 12.2516C9.12888 11.7944 12.9421 8.24395 13.1088 8.08301C13.3668 7.83376 13.2066 7.68538 12.9071 7.87366L7.27443 11.5779L5.10137 10.8207C5.10137 10.8207 4.75939 10.6947 4.7265 10.4208C4.69316 10.1465 5.11262 9.99809 5.11262 9.99809L13.9715 6.39925C13.9715 6.39925 14.6996 6.06796 14.6996 6.61622Z" fill="#fff"/></symbol><symbol viewBox="0 0 24 24" fill="none" id="svg-user"><path d="M14 15H6C3.79086 15 2 16.7909 2 19V21H10 18V19C18 16.7909 16.2091 15 14 15zM10 11C12.2091 11 14 9.20914 14 7 14 4.79086 12.2091 3 10 3 7.79086 3 6 4.79086 6 7 6 9.20914 7.79086 11 10 11z"/></symbol><symbol viewBox="0 0 21 21" id="svg-viber"><rect width="21" height="21" rx="10.5"/><path d="M13.7833 5.01158C11.7823 4.62944 9.70425 4.62944 7.70321 5.01158C6.81813 5.20265 5.70216 6.27264 5.50975 7.11335C5.16342 8.75655 5.16342 10.438 5.50975 12.0812C5.74064 12.9219 6.85661 13.9919 7.70321 14.1829C7.74169 14.1829 7.78017 14.2211 7.78017 14.2594V16.6668C7.78017 16.7815 7.9341 16.8579 8.01106 16.7433L9.16551 15.5586C9.16551 15.5586 10.0891 14.6033 10.243 14.4504C10.243 14.4504 10.2815 14.4122 10.32 14.4122C11.4744 14.4504 12.6673 14.3358 13.8218 14.1447C14.7069 13.9536 15.8228 12.8837 16.0152 12.0429C16.3616 10.3997 16.3616 8.71833 16.0152 7.07513C15.7844 6.27264 14.6684 5.20265 13.7833 5.01158ZM13.8218 12.1958C13.6294 12.5779 13.3985 12.8837 13.0137 13.0747C12.8982 13.1129 12.7828 13.1512 12.6673 13.1894C12.5134 13.1512 12.398 13.1129 12.2825 13.0747C11.0511 12.5779 9.89666 11.8901 8.9731 10.8965C8.47284 10.3233 8.04954 9.67368 7.70321 8.98583C7.54928 8.64191 7.39535 8.33619 7.27991 7.99227C7.16446 7.68656 7.35687 7.38085 7.54928 7.15156C7.74169 6.92228 7.97258 6.76942 8.24195 6.65478C8.43436 6.54014 8.62677 6.61657 8.78069 6.76942C9.08855 7.15156 9.3964 7.5337 9.62729 7.95405C9.78122 8.22155 9.74273 8.52726 9.47336 8.71833C9.3964 8.75655 9.35792 8.79476 9.28095 8.87119C9.24247 8.9094 9.16551 8.94762 9.12703 9.02404C9.05006 9.13869 9.05006 9.25333 9.08855 9.36797C9.3964 10.2469 9.97362 10.9347 10.8587 11.3169C11.0126 11.3933 11.1281 11.4315 11.3205 11.4315C11.5899 11.3933 11.7053 11.0876 11.8977 10.9347C12.0901 10.7819 12.321 10.7819 12.5519 10.8965C12.7443 11.0112 12.9367 11.164 13.1676 11.3169C13.36 11.4697 13.5524 11.5844 13.7448 11.7372C13.8603 11.8137 13.8988 12.0047 13.8218 12.1958ZM12.2056 9.32976C12.1286 9.32976 12.1671 9.32976 12.2056 9.32976C12.0516 9.32976 12.0132 9.25333 11.9747 9.13869C11.9747 9.06226 11.9747 8.94762 11.9362 8.87119C11.8977 8.71833 11.8207 8.56548 11.6668 8.45084C11.5899 8.41262 11.5129 8.37441 11.4359 8.33619C11.3205 8.29798 11.2435 8.29798 11.1281 8.29798C11.0126 8.25977 10.9741 8.18334 10.9741 8.0687C10.9741 7.99227 11.0896 7.91584 11.1666 7.91584C11.7823 7.95406 12.244 8.29798 12.321 9.02404C12.321 9.06226 12.321 9.13869 12.321 9.1769C12.321 9.25333 12.2825 9.32976 12.2056 9.32976ZM11.8207 7.64834C11.6283 7.57192 11.4359 7.49549 11.205 7.45727C11.1281 7.45727 11.0126 7.41906 10.9357 7.41906C10.8202 7.41906 10.7433 7.34263 10.7817 7.22799C10.7817 7.11335 10.8587 7.03692 10.9741 7.07513C11.359 7.11335 11.7053 7.18978 12.0516 7.34263C12.7443 7.68656 13.1291 8.25977 13.2446 9.02404C13.2446 9.06226 13.2446 9.10047 13.2446 9.13869C13.2446 9.21512 13.2446 9.29154 13.2446 9.40618C13.2446 9.4444 13.2446 9.48261 13.2446 9.52083C13.2061 9.67368 12.9367 9.7119 12.8982 9.52083C12.8982 9.48261 12.8598 9.40619 12.8598 9.36797C12.8598 9.02405 12.7828 8.68012 12.6289 8.37441C12.398 8.03048 12.1286 7.8012 11.8207 7.64834ZM13.8988 9.94118C13.7833 9.94118 13.7063 9.82654 13.7063 9.7119C13.7063 9.48261 13.6679 9.25333 13.6294 9.02404C13.4755 7.8012 12.4749 6.80764 11.282 6.61657C11.0896 6.57835 10.8972 6.57835 10.7433 6.54014C10.6278 6.54014 10.4739 6.54014 10.4354 6.38728C10.3969 6.27264 10.5124 6.158 10.6278 6.158C10.6663 6.158 10.7048 6.158 10.7048 6.158C10.7817 6.158 12.2825 6.19621 10.7048 6.158C12.321 6.19621 13.6679 7.2662 13.9372 8.87119C13.9757 9.13869 14.0142 9.40619 14.0142 9.7119C14.0912 9.82654 14.0142 9.94118 13.8988 9.94118Z" fill="#fff"/></symbol><symbol viewBox="0 0 36 36" id="svg-view-pass"><path fill-rule="evenodd" clip-rule="evenodd" d="M16.9989 30C16.4466 30 15.9989 29.5523 15.9989 29V25.5766C14.3544 25.3936 12.7437 24.9202 11.2248 24.1764L9.35149 27.4211C9.07535 27.8994 8.46376 28.0633 7.98547 27.7871C7.50718 27.511 7.3433 26.8994 7.61944 26.4211L9.48968 23.1817C8.23316 22.35 7.06404 21.3178 6.02105 20.0986C6.01476 20.1041 6.00838 20.1096 6.00191 20.115L2.93773 22.6862C2.51466 23.0412 1.8839 22.986 1.5289 22.5629C1.1739 22.1398 1.22908 21.5091 1.65216 21.1541L4.71634 18.5829C4.74648 18.5576 4.77768 18.5344 4.80976 18.5133C4.16234 17.5635 3.58317 16.5263 3.08516 15.4063C2.86077 14.9016 3.08797 14.3106 3.59262 14.0863C4.09727 13.8619 4.68827 14.0891 4.91265 14.5937C7.46188 20.327 12.2607 23.4723 17.0962 23.654C21.9016 23.8347 26.9705 21.0938 30.0971 14.5679C30.3357 14.0699 30.9329 13.8595 31.431 14.0982C31.929 14.3368 32.1394 14.934 31.9007 15.4321C31.2689 16.7509 30.5576 17.9386 29.7817 18.9974C29.8767 19.0357 29.9673 19.0894 30.05 19.1588L33.2275 21.8251C33.6506 22.1801 33.7058 22.8109 33.3508 23.234C32.9958 23.657 32.365 23.7122 31.942 23.3572L28.7644 20.6909C28.6907 20.6291 28.6281 20.5588 28.577 20.4828C27.349 21.8492 25.9979 22.9398 24.5705 23.7611L26.4401 26.9992C26.7162 27.4775 26.5523 28.0891 26.074 28.3652C25.5957 28.6414 24.9841 28.4775 24.708 27.9992L22.7687 24.6403C21.2228 25.2663 19.615 25.6021 17.9989 25.655V29C17.9989 29.5523 17.5512 30 16.9989 30Z"/></symbol><symbol viewBox="0 0 21 21" id="svg-vk"><rect width="21" height="21" rx="10.5"/><path d="M11.0154 14.175C7.06924 14.175 4.81839 11.4159 4.72461 6.82495H6.70131C6.76624 10.1946 8.22352 11.6219 9.3778 11.9162V6.82495H11.2391V9.73111C12.3789 9.60603 13.5765 8.28171 13.9805 6.82495H15.8418C15.6895 7.58047 15.3861 8.29582 14.9504 8.92626C14.5146 9.55671 13.9561 10.0887 13.3096 10.4889C14.0312 10.8546 14.6686 11.3722 15.1797 12.0076C15.6908 12.643 16.064 13.3817 16.2746 14.175H14.2258C14.0367 13.4859 13.6524 12.8692 13.1211 12.4019C12.5898 11.9347 11.9351 11.6378 11.2391 11.5484V14.175H11.0154Z" fill="#fff"/></symbol><symbol viewBox="0 0 22 21" id="svg-whatsup"><rect width="22" height="21" rx="10.5"/><path d="M15.3598 6.33279C14.2732 5.29919 12.8244 4.72498 11.2951 4.72498C8.11585 4.72498 5.54024 7.17498 5.54024 10.1992C5.54024 11.1562 5.82195 12.1133 6.30488 12.9172L5.5 15.75L8.55854 14.9844C9.40366 15.4054 10.3293 15.6351 11.2951 15.6351C14.4744 15.6351 17.05 13.1851 17.05 10.1609C17.0098 8.74451 16.4463 7.36638 15.3598 6.33279ZM14.072 12.1515C13.9512 12.4578 13.3878 12.764 13.1061 12.8023C12.8646 12.8406 12.5427 12.8406 12.2207 12.764C12.0195 12.6875 11.7378 12.6109 11.4159 12.4578C9.96707 11.8836 9.04146 10.5054 8.96098 10.3906C8.88049 10.314 8.35732 9.66326 8.35732 8.97419C8.35732 8.28513 8.71951 7.97888 8.84024 7.82576C8.96098 7.67263 9.12195 7.67263 9.24268 7.67263C9.32317 7.67263 9.4439 7.67263 9.52439 7.67263C9.60488 7.67263 9.72561 7.63435 9.84634 7.90232C9.96707 8.17029 10.2488 8.85935 10.289 8.89763C10.3293 8.97419 10.3293 9.05076 10.289 9.12732C10.2488 9.20388 10.2085 9.28044 10.128 9.35701C10.0476 9.43357 9.96707 9.54841 9.92683 9.58669C9.84634 9.66326 9.76585 9.73982 9.84634 9.85466C9.92683 10.0078 10.2085 10.4289 10.6512 10.8117C11.2146 11.2711 11.6573 11.4242 11.8183 11.5008C11.9793 11.5773 12.0598 11.539 12.1402 11.4625C12.2207 11.3859 12.5024 11.0797 12.5829 10.9265C12.6634 10.7734 12.7841 10.8117 12.9049 10.85C13.0256 10.8883 13.75 11.2328 13.8707 11.3094C14.0317 11.3859 14.1122 11.4242 14.1524 11.4625C14.1927 11.5773 14.1927 11.8453 14.072 12.1515Z" fill="#fff"/></symbol></svg>