<svg width="32" height="32" viewBox="0 0 32 32" xmlns="http://www.w3.org/2000/svg">
<path fill-rule="evenodd" clip-rule="evenodd" d="M4.5835 14.667C4.5835 14.2528 4.91928 13.917 5.3335 13.917H26.6668C27.081 13.917 27.4168 14.2528 27.4168 14.667C27.4168 15.0812 27.081 15.417 26.6668 15.417H5.3335C4.91928 15.417 4.5835 15.0812 4.5835 14.667Z" />
<path fill-rule="evenodd" clip-rule="evenodd" d="M4.5835 9.33366C4.5835 7.44669 6.11319 5.91699 8.00016 5.91699H24.0002C25.8872 5.91699 27.4168 7.44669 27.4168 9.33366V25.3337C27.4168 27.2207 25.8872 28.7503 24.0002 28.7503H8.00016C6.1132 28.7503 4.5835 27.2207 4.5835 25.3337V9.33366ZM8.00016 7.41699C6.94162 7.41699 6.0835 8.27511 6.0835 9.33366V25.3337C6.0835 26.3922 6.94161 27.2503 8.00016 27.2503H24.0002C25.0588 27.2503 25.9168 26.3922 25.9168 25.3337V9.33366C25.9168 8.27511 25.0587 7.41699 24.0002 7.41699H8.00016Z" />
<path fill-rule="evenodd" clip-rule="evenodd" d="M20 3.25C20.4142 3.25 20.75 3.58579 20.75 4V9.33333C20.75 9.74755 20.4142 10.0833 20 10.0833C19.5858 10.0833 19.25 9.74755 19.25 9.33333V4C19.25 3.58579 19.5858 3.25 20 3.25Z" />
<path fill-rule="evenodd" clip-rule="evenodd" d="M12 3.25C12.4142 3.25 12.75 3.58579 12.75 4V9.33333C12.75 9.74755 12.4142 10.0833 12 10.0833C11.5858 10.0833 11.25 9.74755 11.25 9.33333V4C11.25 3.58579 11.5858 3.25 12 3.25Z" />
</svg>
