<svg width="36" height="36" viewBox="0 0 36 36" xmlns="http://www.w3.org/2000/svg">
	<path fill-rule="evenodd" clip-rule="evenodd" d="M16.9984 6C16.4461 6 15.9984 6.44772 15.9984 7V10.335C14.2289 10.5361 12.634 11.0812 11.2194 11.8159L9.35059 8.57892C9.07444 8.10062 8.46285 7.93675 7.98456 8.21289C7.50627 8.48903 7.34239 9.10062 7.61854 9.57892L9.50631 12.8486C8.90776 13.2613 8.35047 13.7018 7.83504 14.1537C7.17482 14.7325 6.57866 15.3337 6.04724 15.9254C6.03263 15.9116 6.01752 15.8981 6.00191 15.885L2.93773 13.3138C2.51466 12.9588 1.8839 13.014 1.5289 13.4371C1.1739 13.8602 1.22908 14.4909 1.65216 14.8459L4.71634 17.4171C4.73664 17.4341 4.75743 17.4502 4.77863 17.4653C4.08165 18.3871 3.56866 19.2018 3.24275 19.7582C2.77278 20.5607 2.83123 21.5565 3.4067 22.2969C4.90207 24.2209 9.70206 29.4994 17.4994 29.4994C25.303 29.4994 30.0809 24.2127 31.5647 22.2907C32.1346 21.5525 32.1918 20.5636 31.7272 19.765C31.3481 19.1132 30.7124 18.1051 29.8242 16.9849C29.9042 16.9483 29.9807 16.9005 30.0513 16.8412L33.2289 14.1749C33.652 13.8199 33.7071 13.1891 33.3521 12.766C32.9971 12.343 32.3664 12.2878 31.9433 12.6428L28.7657 15.3091C28.6879 15.3744 28.6225 15.4491 28.5698 15.5301C28.1372 15.0694 27.6659 14.6072 27.156 14.1585C26.3849 13.48 25.5194 12.8269 24.5614 12.2553L26.4404 9.00079C26.7166 8.5225 26.5527 7.91091 26.0744 7.63477C25.5961 7.35862 24.9845 7.5225 24.7084 8.00079L22.7782 11.344C21.348 10.7315 19.7532 10.3249 17.9984 10.2596V7C17.9984 6.44772 17.5507 6 16.9984 6ZM9.15348 15.6576C7.0183 17.5294 5.60461 19.6829 4.96855 20.769C4.90799 20.8724 4.91711 20.9812 4.98584 21.0696C6.36646 22.846 10.6499 27.4994 17.4994 27.4994C24.3522 27.4994 28.6131 22.8411 29.9816 21.0685C30.0491 20.981 30.0583 20.8736 29.9984 20.7706C29.368 19.6868 27.9629 17.5328 25.8347 15.6599C23.7105 13.7906 20.9246 12.2503 17.4994 12.2503C14.0759 12.2503 11.2849 13.789 9.15348 15.6576ZM17.4987 23.5003C19.7079 23.5003 21.4987 21.7094 21.4987 19.5003C21.4987 17.2912 19.7079 15.5003 17.4987 15.5003C15.2896 15.5003 13.4987 17.2912 13.4987 19.5003C13.4987 21.7094 15.2896 23.5003 17.4987 23.5003ZM17.4987 25.5003C20.8125 25.5003 23.4987 22.814 23.4987 19.5003C23.4987 16.1866 20.8125 13.5003 17.4987 13.5003C14.185 13.5003 11.4987 16.1866 11.4987 19.5003C11.4987 22.814 14.185 25.5003 17.4987 25.5003Z" />
</svg>