<svg width="33" height="32" viewBox="0 0 33 32" xmlns="http://www.w3.org/2000/svg">
<path fill-rule="evenodd" clip-rule="evenodd" d="M5.8602 6.52717C6.23639 6.151 6.75824 5.91699 7.33333 5.91699H28.6667C29.2417 5.91699 29.7636 6.15102 30.1397 6.52712L30.1398 6.52714C30.5161 6.90339 30.75 7.42528 30.75 8.00033V24.0003C30.75 25.1509 29.8173 26.0837 28.6667 26.0837H7.33333C6.18276 26.0837 5.25 25.1509 5.25 24.0003V8.00033C5.25 7.42523 5.48401 6.90338 5.86018 6.5272L5.8602 6.52717ZM6.92084 7.58786C6.92085 7.58785 6.92086 7.58784 6.92086 7.58783C7.02726 7.48145 7.17207 7.41699 7.33333 7.41699H28.6667C28.8279 7.41699 28.9727 7.48144 29.0792 7.5879C29.1855 7.69424 29.25 7.839 29.25 8.00033V24.0003C29.25 24.3225 28.9889 24.5837 28.6667 24.5837H7.33333C7.01116 24.5837 6.75 24.3225 6.75 24.0003V8.00033C6.75 7.83906 6.81446 7.69426 6.92084 7.58786Z"/>
<path fill-rule="evenodd" clip-rule="evenodd" d="M5.86029 6.52729C6.15318 6.23439 6.62806 6.23439 6.92095 6.52728L16.6448 16.2511C17.3933 16.9996 18.6069 16.9997 19.3553 16.2511L29.0792 6.52729C29.3721 6.23439 29.847 6.23439 30.1399 6.52729C30.4328 6.82018 30.4328 7.29506 30.1399 7.58795L20.4161 17.3117C20.4161 17.3117 20.4161 17.3117 20.4161 17.3117C19.0818 18.6461 16.9184 18.6461 15.5842 17.3117C15.5842 17.3117 15.5842 17.3118 15.5842 17.3117L5.8603 7.58795C5.5674 7.29506 5.5674 6.82018 5.86029 6.52729Z"/>
</svg>
