<svg width="33" height="32" stroke="none" viewBox="0 0 33 32" xmlns="http://www.w3.org/2000/svg">
<g clip-path="url(#clip0_1926_501)">
<path fill-rule="evenodd" clip-rule="evenodd" d="M25.0291 4.86883C25.2923 5.02079 25.4377 5.31656 25.3974 5.6178L22.147 29.9144C22.1066 30.2164 21.8875 30.464 21.5926 30.5407C21.2977 30.6175 20.9857 30.5082 20.8031 30.2642L14.9128 22.3908L5.14902 21.2263C4.84643 21.1902 4.59577 20.9746 4.5148 20.6809C4.43383 20.3871 4.53866 20.0735 4.78002 19.8875L24.1963 4.92429C24.437 4.73877 24.7659 4.71687 25.0291 4.86883ZM7.15058 19.9544L15.4096 20.9394C15.6134 20.9637 15.7983 21.0705 15.9213 21.2349L20.9038 27.8948L23.6692 7.22424L7.15058 19.9544Z"/>
</g>
<defs>
<clipPath id="clip0_1926_501">
<rect width="32" height="32" fill="white" transform="translate(0.666504)"/>
</clipPath>
</defs>
</svg>
