<svg width="20" height="18" viewBox="0 0 20 18" xmlns="http://www.w3.org/2000/svg">
<path d="M6.518 2.17495L0.500139 8.47495C0.428711 8.54995 0.378235 8.6312 0.348711 8.7187C0.318711 8.8062 0.303711 8.89995 0.303711 8.99995C0.303711 9.09995 0.318711 9.1937 0.348711 9.2812C0.378235 9.3687 0.428711 9.44995 0.500139 9.52495L6.518 15.8437C6.68466 16.0187 6.893 16.1062 7.143 16.1062C7.393 16.1062 7.60728 16.0125 7.78585 15.825C7.96442 15.6375 8.05371 15.4187 8.05371 15.1687C8.05371 14.9187 7.96442 14.7 7.78585 14.5125L2.53585 8.99995L7.78585 3.48745C7.95252 3.31245 8.03585 3.09695 8.03585 2.84095C8.03585 2.58445 7.94657 2.36245 7.768 2.17495C7.58942 1.98745 7.38109 1.8937 7.143 1.8937C6.9049 1.8937 6.69657 1.98745 6.518 2.17495Z"/>
<path d="M16.518 2.17495L10.5001 8.47495C10.4287 8.54995 10.3782 8.6312 10.3487 8.7187C10.3187 8.8062 10.3037 8.89995 10.3037 8.99995C10.3037 9.09995 10.3187 9.1937 10.3487 9.2812C10.3782 9.3687 10.4287 9.44995 10.5001 9.52495L16.518 15.8437C16.6847 16.0187 16.893 16.1062 17.143 16.1062C17.393 16.1062 17.6073 16.0125 17.7859 15.825C17.9644 15.6375 18.0537 15.4187 18.0537 15.1687C18.0537 14.9187 17.9644 14.7 17.7859 14.5125L12.5359 8.99995L17.7859 3.48745C17.9525 3.31245 18.0359 3.09695 18.0359 2.84095C18.0359 2.58445 17.9466 2.36245 17.768 2.17495C17.5894 1.98745 17.3811 1.8937 17.143 1.8937C16.9049 1.8937 16.6966 1.98745 16.518 2.17495Z"/>
</svg>
