<svg width="33" height="32" viewBox="0 0 33 32" xmlns="http://www.w3.org/2000/svg">
<path fill-rule="evenodd" clip-rule="evenodd" d="M5.25 6.66667C5.25 4.77969 6.77969 3.25 8.66667 3.25H19.3333C21.2204 3.25 22.75 4.7797 22.75 6.66667V25.3333C22.75 27.2203 21.2203 28.75 19.3333 28.75H8.66667C6.7797 28.75 5.25 27.2204 5.25 25.3333V6.66667ZM8.66667 4.75C7.60812 4.75 6.75 5.60812 6.75 6.66667V25.3333C6.75 26.3919 7.60811 27.25 8.66667 27.25H19.3333C20.3919 27.25 21.25 26.3919 21.25 25.3333V6.66667C21.25 5.60811 20.3919 4.75 19.3333 4.75H8.66667Z"/>
<path fill-rule="evenodd" clip-rule="evenodd" d="M14 23.25C14.4142 23.25 14.75 23.5858 14.75 24V24.0133C14.75 24.4275 14.4142 24.7633 14 24.7633C13.5858 24.7633 13.25 24.4275 13.25 24.0133V24C13.25 23.5858 13.5858 23.25 14 23.25Z"/>
</svg>
