<svg width="121" height="121" viewBox="0 0 121 121" xmlns="http://www.w3.org/2000/svg">
<path d="M89.5259 56.6729C92.8523 58.5987 92.8523 63.4013 89.5259 65.3272L47.5052 89.6549C44.1718 91.5848 40 89.1795 40 85.3278L40 36.6723C40 32.8206 44.1719 30.4153 47.5052 32.3451L89.5259 56.6729Z"/>
<path fill-rule="evenodd" clip-rule="evenodd" d="M60.5 120C93.3609 120 120 93.3609 120 60.5C120 27.6391 93.3609 1 60.5 1C27.6391 1 1 27.6391 1 60.5C1 93.3609 27.6391 120 60.5 120ZM60.5 121C93.9132 121 121 93.9132 121 60.5C121 27.0868 93.9132 0 60.5 0C27.0868 0 0 27.0868 0 60.5C0 93.9132 27.0868 121 60.5 121Z"/>
</svg>
