<svg width="36" height="36" viewBox="0 0 36 36" xmlns="http://www.w3.org/2000/svg">
  <path fill-rule="evenodd" clip-rule="evenodd" d="M16.9989 30C16.4466 30 15.9989 29.5523 15.9989 29V25.5766C14.3544 25.3936 12.7437 24.9202 11.2248 24.1764L9.35149 27.4211C9.07535 27.8994 8.46376 28.0633 7.98547 27.7871C7.50718 27.511 7.3433 26.8994 7.61944 26.4211L9.48968 23.1817C8.23316 22.35 7.06404 21.3178 6.02105 20.0986C6.01476 20.1041 6.00838 20.1096 6.00191 20.115L2.93773 22.6862C2.51466 23.0412 1.8839 22.986 1.5289 22.5629C1.1739 22.1398 1.22908 21.5091 1.65216 21.1541L4.71634 18.5829C4.74648 18.5576 4.77768 18.5344 4.80976 18.5133C4.16234 17.5635 3.58317 16.5263 3.08516 15.4063C2.86077 14.9016 3.08797 14.3106 3.59262 14.0863C4.09727 13.8619 4.68827 14.0891 4.91265 14.5937C7.46188 20.327 12.2607 23.4723 17.0962 23.654C21.9016 23.8347 26.9705 21.0938 30.0971 14.5679C30.3357 14.0699 30.9329 13.8595 31.431 14.0982C31.929 14.3368 32.1394 14.934 31.9007 15.4321C31.2689 16.7509 30.5576 17.9386 29.7817 18.9974C29.8767 19.0357 29.9673 19.0894 30.05 19.1588L33.2275 21.8251C33.6506 22.1801 33.7058 22.8109 33.3508 23.234C32.9958 23.657 32.365 23.7122 31.942 23.3572L28.7644 20.6909C28.6907 20.6291 28.6281 20.5588 28.577 20.4828C27.349 21.8492 25.9979 22.9398 24.5705 23.7611L26.4401 26.9992C26.7162 27.4775 26.5523 28.0891 26.074 28.3652C25.5957 28.6414 24.9841 28.4775 24.708 27.9992L22.7687 24.6403C21.2228 25.2663 19.615 25.6021 17.9989 25.655V29C17.9989 29.5523 17.5512 30 16.9989 30Z" />
</svg>